<svg width="18" height="18" viewBox="0 0 18 18" fill="none" xmlns="http://www.w3.org/2000/svg">
<g clip-path="url(#clip0_3_7004)">
<path d="M13.996 11.1226L12.1579 10.9128C11.7164 10.8621 11.2822 11.0141 10.971 11.3253L9.63945 12.6568C7.59144 11.6147 5.91251 9.94302 4.87041 7.88776L6.20922 6.54895C6.5204 6.23776 6.67237 5.80355 6.62171 5.36211L6.41185 3.53843C6.325 2.80751 5.70988 2.25751 4.97173 2.25751H3.71976C2.902 2.25751 2.22175 2.93777 2.2724 3.75553C2.65595 9.93578 7.59868 14.8713 13.7717 15.2548C14.5894 15.3055 15.2697 14.6252 15.2697 13.8075V12.5555C15.2769 11.8246 14.7269 11.2095 13.996 11.1226Z" fill="#212121"/>
</g>
<defs>
<clipPath id="clip0_3_7004">
<rect width="18" height="18" fill="white"/>
</clipPath>
</defs>
</svg>
